<svg xmlns="http://www.w3.org/2000/svg" viewBox="0 0 51.46 99.9"><defs><style>.cls-5{fill:#0671af;fill-rule:evenodd}</style><clipPath id="clip-path"><path fill="none" d="M0 0h51.47v99.9H0z"/></clipPath></defs><g id="Слой_2" data-name="Слой 2"><g clip-path="url(#clip-path)" id="Слой_1-2" data-name="Слой 1"><path d="M6.7 93a2.42 2.42 0 0 1 0 .32.93.93 0 0 1-.05.21.26.26 0 0 1-.09.12.23.23 0 0 1-.13 0H1.16a1.16 1.16 0 0 1-.27 0 .36.36 0 0 1-.18-.1.46.46 0 0 1-.1-.21 1.68 1.68 0 0 1 0-.37 2.64 2.64 0 0 1 0-.36.92.92 0 0 1 .08-.27 1.32 1.32 0 0 1 .14-.23 2.09 2.09 0 0 1 .17-.28l1.58-1.53a7.71 7.71 0 0 0 .76-.82 4.63 4.63 0 0 0 .45-.67 2.35 2.35 0 0 0 .22-.56 2.08 2.08 0 0 0 .06-.49 1.06 1.06 0 0 0-.07-.4.9.9 0 0 0-.17-.36 1 1 0 0 0-.36-.22 1.52 1.52 0 0 0-.47-.05 2.57 2.57 0 0 0-.74.1 3.69 3.69 0 0 0-.56.21l-.41.22a.53.53 0 0 1-.25.1.17.17 0 0 1-.11 0 .27.27 0 0 1-.07-.13 1.87 1.87 0 0 1 0-.24 3.46 3.46 0 0 1 0-.37 2.24 2.24 0 0 1 0-.25 1 1 0 0 1 0-.17.46.46 0 0 1-.02-.2l.16-.1a1.89 1.89 0 0 1 .33-.2 4 4 0 0 1 .58-.23 6.07 6.07 0 0 1 .76-.19 4.76 4.76 0 0 1 .87-.08 4.26 4.26 0 0 1 1.25.16 2.55 2.55 0 0 1 .89.45 1.81 1.81 0 0 1 .52.69 2.13 2.13 0 0 1 .17.86 3.83 3.83 0 0 1-.08.79 2.94 2.94 0 0 1-.39.85 6.8 6.8 0 0 1-.76 1 16.84 16.84 0 0 1-1.29 1.27l-1.07 1h3.6a.22.22 0 0 1 .13 0 .29.29 0 0 1 .1.12.69.69 0 0 1 .06.21 1.89 1.89 0 0 1 0 .31m13.08-3.36v-1a5.84 5.84 0 0 0-.11-.78 2.76 2.76 0 0 0-.18-.56 1.08 1.08 0 0 0-.27-.37.92.92 0 0 0-.35-.2 1.63 1.63 0 0 0-.44-.06 1.11 1.11 0 0 0-1.12.73 3.17 3.17 0 0 0-.22.91 10.89 10.89 0 0 0-.07 1.27 11.63 11.63 0 0 0 .01 1.42 3.13 3.13 0 0 0 .25.92 1 1 0 0 0 .43.48 1.52 1.52 0 0 0 1.12.06 1 1 0 0 0 .37-.24 1.28 1.28 0 0 0 .26-.4 2.69 2.69 0 0 0 .17-.56 5 5 0 0 0 .09-.72v-.89m1.86-.09a8.31 8.31 0 0 1-.18 1.79 3.73 3.73 0 0 1-.58 1.36 2.59 2.59 0 0 1-1 .86 3.65 3.65 0 0 1-1.56.3 3.6 3.6 0 0 1-1.55-.29 2.33 2.33 0 0 1-1-.84 3.56 3.56 0 0 1-.51-1.34 10 10 0 0 1-.14-1.79 8.15 8.15 0 0 1 .18-1.79 3.8 3.8 0 0 1 .58-1.37 2.61 2.61 0 0 1 1-.86 3.63 3.63 0 0 1 1.56-.3 3.63 3.63 0 0 1 1.65.3 2.32 2.32 0 0 1 1 .84 3.53 3.53 0 0 1 .5 1.34 10.24 10.24 0 0 1 .14 1.79M36.06 93a1.86 1.86 0 0 1 0 .3.66.66 0 0 1-.06.2.24.24 0 0 1-.09.1.21.21 0 0 1-.11 0h-5a.2.2 0 0 1-.11 0 .26.26 0 0 1-.09-.1.66.66 0 0 1-.06-.2 1.86 1.86 0 0 1 0-.3 2.29 2.29 0 0 1 0-.31.67.67 0 0 1 .06-.2.31.31 0 0 1 .09-.11.18.18 0 0 1 .11 0h1.7v-5.43l-1.5.73a1.2 1.2 0 0 1-.26.09.19.19 0 0 1-.16 0 .33.33 0 0 1-.08-.19 2.57 2.57 0 0 1 0-.38v-.25a.56.56 0 0 1 0-.17.27.27 0 0 1 .08-.12l.13-.1 2-1.15h1.48a.19.19 0 0 1 .11.06.16.16 0 0 1 0 .1v6.84h1.49a.21.21 0 0 1 .12 0 .3.3 0 0 1 .09.11.67.67 0 0 1 .06.2 2.14 2.14 0 0 1 0 .31m13-4.15a6.54 6.54 0 0 0-.06-1.14 2.15 2.15 0 0 0-.25-.73 1 1 0 0 0-.42-.39 1.44 1.44 0 0 0-.59-.11 1.41 1.41 0 0 0-.57.1 1.05 1.05 0 0 0-.4.3 1.29 1.29 0 0 0-.24.45 2.07 2.07 0 0 0-.08.57 2.31 2.31 0 0 0 .07.59 1 1 0 0 0 .21.43.84.84 0 0 0 .38.25 1.71 1.71 0 0 0 .57.08 2.63 2.63 0 0 0 .77-.11 2.56 2.56 0 0 0 .65-.3m1.83.24c0 .34 0 .69-.06 1a5.68 5.68 0 0 1-.22 1.06 4.39 4.39 0 0 1-.44 1 3 3 0 0 1-.72.82 3.39 3.39 0 0 1-1.07.55 4.8 4.8 0 0 1-1.49.21 4.72 4.72 0 0 1-.6 0c-.2 0-.38-.06-.55-.09l-.42-.12a.84.84 0 0 1-.25-.13.36.36 0 0 1-.11-.2 1.39 1.39 0 0 1 0-.36v-.34a.65.65 0 0 1 0-.2.19.19 0 0 1 .08-.09h.11a.91.91 0 0 1 .24 0l.38.1.51.1a4 4 0 0 0 .63 0 2.35 2.35 0 0 0 1-.19 1.81 1.81 0 0 0 .66-.52A2.19 2.19 0 0 0 49 91a3.79 3.79 0 0 0 .13-.9 3.72 3.72 0 0 1-.78.32 3.66 3.66 0 0 1-1.05.14 3.83 3.83 0 0 1-1.3-.16 2.08 2.08 0 0 1-.83-.5 1.93 1.93 0 0 1-.46-.79 3.56 3.56 0 0 1-.14-1.05 3.09 3.09 0 0 1 .2-1.14 2.5 2.5 0 0 1 .61-.9 2.74 2.74 0 0 1 1-.59 4.14 4.14 0 0 1 1.39-.21 4.08 4.08 0 0 1 1.11.13 2.56 2.56 0 0 1 .82.38 2.24 2.24 0 0 1 .57.61 3 3 0 0 1 .36.79 5.17 5.17 0 0 1 .18.94 10 10 0 0 1 .05 1.06M3.57 81.54a1.1 1.1 0 0 1 .08.19.1.1 0 0 1 0 .11.26.26 0 0 1-.15 0h-.79a.21.21 0 0 1 0-.07l-.83-1.6L1 81.76v.07a.16.16 0 0 1-.08 0H.21a.2.2 0 0 1-.13 0 .11.11 0 0 1 0-.11 1 1 0 0 1 .09-.19l1.06-1.93-1-1.81a1.55 1.55 0 0 1-.08-.2.1.1 0 0 1 0-.11.26.26 0 0 1 .14 0h.72a.14.14 0 0 1 .08 0v.07L1.91 79l.75-1.46v-.07a.14.14 0 0 1 .07 0h.65a.23.23 0 0 1 .14 0 .11.11 0 0 1 0 .11 1.14 1.14 0 0 1-.08.19l-1 1.8zm2.56-3.24l-.61 1.88h1.23zm2 3.24a1.23 1.23 0 0 1 .05.19.12.12 0 0 1 0 .11.23.23 0 0 1-.13 0h-.76a.22.22 0 0 1 0-.07L7 80.88H5.3l-.3.86a.27.27 0 0 1 0 .08.15.15 0 0 1-.07.05H4.3a.19.19 0 0 1-.12 0 .13.13 0 0 1 0-.11 1.18 1.18 0 0 1 .05-.19l1.36-3.92a.3.3 0 0 1 0-.09.16.16 0 0 1 .09-.06h.96a.19.19 0 0 1 .1.06.34.34 0 0 1 0 .1zm4.35.23a.1.1 0 0 1 0 .06h-.86a.1.1 0 0 1 0-.06V78.2h-.94q-.1.78-.2 1.37t-.21 1a3.52 3.52 0 0 1-.25.68 1.42 1.42 0 0 1-.31.42.92.92 0 0 1-.39.21 1.9 1.9 0 0 1-.49.06H8.7a.11.11 0 0 1-.06-.05.26.26 0 0 1 0-.1 1.18 1.18 0 0 1 0-.17v-.24a.63.63 0 0 1 0-.14.12.12 0 0 1 0-.07h.07a.5.5 0 0 0 .2 0A.48.48 0 0 0 9.1 81a1.51 1.51 0 0 0 .18-.36 4.67 4.67 0 0 0 .16-.6q.08-.37.16-.91t.16-1.28a.46.46 0 0 1 .08-.24.23.23 0 0 1 .18-.07h2.17a.25.25 0 0 1 .19.07.3.3 0 0 1 .07.21zM16 80.5a.86.86 0 0 0 0-.29.58.58 0 0 0-.15-.22.7.7 0 0 0-.25-.14 1.54 1.54 0 0 0-.45-.05h-.46v1.4h.48a1.36 1.36 0 0 0 .47-.06.64.64 0 0 0 .25-.16.62.62 0 0 0 .13-.22.77.77 0 0 0 0-.24m.92-.07a1.65 1.65 0 0 1-.1.58 1.2 1.2 0 0 1-.31.46 1.5 1.5 0 0 1-.54.31 2.87 2.87 0 0 1-.92.12h-1.18l-.09-.05a.28.28 0 0 1-.06-.09.33.33 0 0 1 0-.13v-4a.09.09 0 0 1 0-.06h.85a.1.1 0 0 1 0 .06v1.53h.56a3 3 0 0 1 .79.09 1.41 1.41 0 0 1 .5.25 1.16 1.16 0 0 1 .32.42 1.34 1.34 0 0 1 .11.56m1.44 1.34a.09.09 0 0 1 0 .06h-.86a.09.09 0 0 1 0-.06v-4.26a.09.09 0 0 1 0-.06h.86a.09.09 0 0 1 0 .06zm4.17.06H22a.17.17 0 0 1-.08-.05.2.2 0 0 1 0-.08l-.35-1a2.32 2.32 0 0 0-.16-.36.94.94 0 0 0-.18-.24A.57.57 0 0 0 21 80a1 1 0 0 0-.28 0h-.2v1.77a.1.1 0 0 1 0 .06.14.14 0 0 1-.07 0h-.78a.09.09 0 0 1 0-.06v-4.19a.1.1 0 0 1 0-.06h.85a.1.1 0 0 1 0 .06v1.66h.2a.82.82 0 0 0 .27 0 .61.61 0 0 0 .21-.13.89.89 0 0 0 .17-.23 2.5 2.5 0 0 0 .15-.35l.3-.88v-.08a.15.15 0 0 1 .08-.05h.73a.11.11 0 0 1 .07 0 .11.11 0 0 1 0 .06.5.5 0 0 1 0 .11 1.63 1.63 0 0 1-.05.17l-.3.79a3.08 3.08 0 0 1-.16.37 1.5 1.5 0 0 1-.17.26.89.89 0 0 1-.19.18 1 1 0 0 1-.22.11l.25.13a1 1 0 0 1 .21.19 1.47 1.47 0 0 1 .19.28 3.65 3.65 0 0 1 .18.4l.23.57h.47a.17.17 0 0 1 .13 0 .17.17 0 0 1 0 .11v1.63a.11.11 0 0 1-.08.1 1.36 1.36 0 0 1-.62 0 .11.11 0 0 1-.08-.1zm6.33-.69v.15a.72.72 0 0 1 0 .1.25.25 0 0 1 0 .08l-.06.07-.14.1-.26.12a2.23 2.23 0 0 1-.36.09 2.33 2.33 0 0 1-.43 0 2.28 2.28 0 0 1-.82-.14 1.63 1.63 0 0 1-.62-.42 1.86 1.86 0 0 1-.39-.69 3.11 3.11 0 0 1-.14-1 3.07 3.07 0 0 1 .15-1 2.08 2.08 0 0 1 .42-.73 1.74 1.74 0 0 1 .65-.45 2.16 2.16 0 0 1 .83-.15 2 2 0 0 1 .35 0l.32.08.26.11.16.11.06.08a.25.25 0 0 1 0 .08.81.81 0 0 1 0 .11v.16a1.72 1.72 0 0 1 0 .17.48.48 0 0 1 0 .12.17.17 0 0 1 0 .06h-.06a.24.24 0 0 1-.13-.06l-.2-.13a1.66 1.66 0 0 0-.3-.13 1.24 1.24 0 0 0-.41-.06 1 1 0 0 0-.47.11 1 1 0 0 0-.35.31 1.49 1.49 0 0 0-.22.48 2.48 2.48 0 0 0-.07.64 2.53 2.53 0 0 0 .08.67 1.32 1.32 0 0 0 .23.47.91.91 0 0 0 .36.27 1.18 1.18 0 0 0 .47.09 1.34 1.34 0 0 0 .41-.06 1.84 1.84 0 0 0 .3-.12l.2-.12a.25.25 0 0 1 .13-.06h.05a.1.1 0 0 1 0 .06.65.65 0 0 1 0 .11v.2m2.51-2.79l-.61 1.88h1.24zm2 3.24a1.23 1.23 0 0 1 .05.19.12.12 0 0 1 0 .11.23.23 0 0 1-.13 0h-.76a.22.22 0 0 1 0-.07l-.29-.89h-1.7l-.28.86a.27.27 0 0 1 0 .08.15.15 0 0 1-.07.05h-.62a.19.19 0 0 1-.12 0 .13.13 0 0 1 0-.11 1.18 1.18 0 0 1 .05-.19l1.36-3.92a.32.32 0 0 1 0-.09.16.16 0 0 1 .09-.06h.96a.19.19 0 0 1 .09.06.32.32 0 0 1 0 .1zm4.37.22a.1.1 0 0 1 0 .06h-.9a.1.1 0 0 1 0-.06V80h-1.66v1.79a.1.1 0 0 1 0 .06h-.85a.1.1 0 0 1 0-.06v-4.2a.1.1 0 0 1 0-.06h.78a.14.14 0 0 1 .07 0 .1.1 0 0 1 0 .06v1.63h1.66v-1.63a.1.1 0 0 1 0-.06h.85a.1.1 0 0 1 0 .06zm2.83-3.46l-.61 1.88h1.24zm2 3.24a1.23 1.23 0 0 1 .05.19.12.12 0 0 1 0 .11.23.23 0 0 1-.13 0h-.76a.2.2 0 0 1 0-.07l-.29-.89h-1.7l-.28.86a.27.27 0 0 1 0 .08.15.15 0 0 1-.07.05h-.62a.19.19 0 0 1-.12 0 .14.14 0 0 1 0-.11 1.29 1.29 0 0 1 .05-.19l1.36-3.92a.28.28 0 0 1 0-.09.16.16 0 0 1 .09-.06h.96a.18.18 0 0 1 .1.06.32.32 0 0 1 0 .1zm2.67-2.25a.11.11 0 0 1 .1.06.62.62 0 0 1 0 .25 1.37 1.37 0 0 1 0 .16.38.38 0 0 1 0 .1h-.81v1.84a.1.1 0 0 1 0 .06h-.86a.09.09 0 0 1 0-.06v-1.78h-.45a.3.3 0 0 1 0-.1 1.2 1.2 0 0 1 0-.16 1.14 1.14 0 0 1 0-.16.33.33 0 0 1 0-.1h.45v-1.5a.32.32 0 0 1 .08-.24.31.31 0 0 1 .22-.08h2.06a.13.13 0 0 1 0 .06.46.46 0 0 1 0 .11 1.33 1.33 0 0 1 0 .17A1.3 1.3 0 0 1 46 78a.38.38 0 0 1 0 .11.15.15 0 0 1 0 .06h-1.56v1.12zM49 80.5a.84.84 0 0 0 0-.29.55.55 0 0 0-.15-.22.69.69 0 0 0-.25-.14 1.52 1.52 0 0 0-.45-.05h-.46v1.4h.48a1.35 1.35 0 0 0 .47-.06.63.63 0 0 0 .25-.16.62.62 0 0 0 .13-.22.77.77 0 0 0 0-.24m.92-.07a1.65 1.65 0 0 1-.1.58 1.2 1.2 0 0 1-.31.46 1.51 1.51 0 0 1-.54.31 2.87 2.87 0 0 1-.92.12H47l-.09-.05a.28.28 0 0 1-.06-.09.31.31 0 0 1 0-.13v-4a.09.09 0 0 1 0-.06h.85a.09.09 0 0 1 0 .06v1.53h.56a2.94 2.94 0 0 1 .79.09 1.4 1.4 0 0 1 .5.25 1.15 1.15 0 0 1 .32.42 1.34 1.34 0 0 1 .11.56m1.44 1.34a.09.09 0 0 1 0 .06h-.86a.09.09 0 0 1 0-.06v-4.26a.09.09 0 0 1 0-.06h.86a.09.09 0 0 1 0 .06zM2.43 99.76h-.58v-2.51H.63v2.52H.06v-2.85a.2.2 0 0 1 .05-.15.18.18 0 0 1 .13 0h2.01a.18.18 0 0 1 .14 0 .22.22 0 0 1 0 .15zm2.73-.16a1 1 0 0 1 0 .12.28.28 0 0 1 0 .08H3.5a.2.2 0 0 1-.13 0 .2.2 0 0 1-.06-.15v-2.73a.19.19 0 0 1 .06-.15.2.2 0 0 1 .13 0h1.6a.35.35 0 0 1 0 .08 1 1 0 0 1 0 .12 1 1 0 0 1 0 .12.29.29 0 0 1 0 .08H3.94V98h1a.27.27 0 0 1 0 .08.91.91 0 0 1 0 .11.92.92 0 0 1 0 .12.28.28 0 0 1 0 .07h-1v.88h1.17a.3.3 0 0 1 0 .08 1 1 0 0 1 0 .12m2.28-1.74a.57.57 0 0 0-.06-.27.39.39 0 0 0-.14-.16.46.46 0 0 0-.19-.07h-.45v1.06h.29a.69.69 0 0 0 .26 0 .43.43 0 0 0 .17-.12.5.5 0 0 0 .1-.18.71.71 0 0 0 0-.23m.66 0a1.23 1.23 0 0 1-.08.47.89.89 0 0 1-.24.34 1.07 1.07 0 0 1-.39.21 1.81 1.81 0 0 1-.54.07h-.23v1h-.62v-2.89a.23.23 0 0 1 .07-.17.22.22 0 0 1 .16-.06h1.19a1.05 1.05 0 0 1 .28.1.82.82 0 0 1 .24.19.78.78 0 0 1 .15.27 1 1 0 0 1 .05.34m2.52 1.98a1 1 0 0 1 0 .12.28.28 0 0 1 0 .08H8.93a.2.2 0 0 1-.13 0 .19.19 0 0 1-.06-.15v-2.73a.19.19 0 0 1 .06-.15.2.2 0 0 1 .13 0h1.6a.41.41 0 0 1 0 .08 1 1 0 0 1 0 .12 1 1 0 0 1 0 .12.29.29 0 0 1 0 .08H9.38V98h1a.27.27 0 0 1 0 .08.91.91 0 0 1 0 .11.92.92 0 0 1 0 .12.28.28 0 0 1 0 .07h-1v.88h1.16a.3.3 0 0 1 0 .08 1 1 0 0 1 0 .12m3.24.3h-.61v-2.51H12v2.52h-.61v-2.85a.2.2 0 0 1 .05-.15.18.18 0 0 1 .13 0h2.03a.18.18 0 0 1 .13 0 .21.21 0 0 1 0 .15zm3.42 0h-.56v-1.98.08l-.06.1-.07.1-.07.1-1.09 1.62h-.49v-3h.61v1.99l.1-.17.13-.2 1.09-1.62h.49zm3.04-.39v.1a.51.51 0 0 1 0 .07.16.16 0 0 1 0 .05l-.1.07-.19.08-.25.07h-.31a1.62 1.62 0 0 1-.58-.1 1.15 1.15 0 0 1-.44-.3A1.32 1.32 0 0 1 18 99a2.21 2.21 0 0 1-.1-.68 2.17 2.17 0 0 1 .11-.71 1.48 1.48 0 0 1 .3-.52 1.25 1.25 0 0 1 .46-.32 1.55 1.55 0 0 1 .59-.11h.25l.22.06.18.08.11.08v.11a.69.69 0 0 1 0 .08v.23a.35.35 0 0 1 0 .08.17.17 0 0 1-.09 0l-.14-.09-.21-.09a.87.87 0 0 0-.29 0 .68.68 0 0 0-.58.29 1 1 0 0 0-.16.34 1.78 1.78 0 0 0-.05.45 1.76 1.76 0 0 0 .06.48.94.94 0 0 0 .16.33.64.64 0 0 0 .25.19.83.83 0 0 0 .33.06 1 1 0 0 0 .29 0l.21-.09.15-.09h.09a.39.39 0 0 1 0 .08 1.36 1.36 0 0 1 0 .14m2.4-.52a.62.62 0 0 0 0-.21.41.41 0 0 0-.1-.16.48.48 0 0 0-.18-.1 1.13 1.13 0 0 0-.33 0h-.37v1h.38a1 1 0 0 0 .34 0 .46.46 0 0 0 .18-.12.43.43 0 0 0 .09-.16.55.55 0 0 0 0-.17m.65-.05a1.19 1.19 0 0 1-.07.41.8.8 0 0 1-.21.32 1.08 1.08 0 0 1-.39.22 2.08 2.08 0 0 1-.66.08h-.93v-.06a.25.25 0 0 1 0-.09V96.8h.55v1.07H22a2.08 2.08 0 0 1 .57.06 1 1 0 0 1 .36.18.82.82 0 0 1 .23.3 1 1 0 0 1 .08.4m4.14.95h-.61V98.5h-1.2v1.26h-.62v-3h.61V98h1.17v-1.19h.61zm2-2.45l-.44 1.33h.88zm1.44 2.3a.89.89 0 0 1 0 .14.08.08 0 0 1 0 .08.17.17 0 0 1-.09 0h-.49v-.05l-.2-.63h-1.25l-.2.61v.06h-.49a.13.13 0 0 1-.09 0 .1.1 0 0 1 0-.08.75.75 0 0 1 0-.13l1-2.77v-.07h.8a.26.26 0 0 1 0 .07zm2.64-.24v.1a.51.51 0 0 1 0 .07.16.16 0 0 1 0 .05l-.1.07-.19.08-.25.07h-.31a1.62 1.62 0 0 1-.58-.1 1.16 1.16 0 0 1-.44-.3 1.32 1.32 0 0 1-.28-.49 2.21 2.21 0 0 1-.1-.68 2.17 2.17 0 0 1 .11-.71 1.48 1.48 0 0 1 .3-.52 1.25 1.25 0 0 1 .46-.32 1.55 1.55 0 0 1 .59-.11h.25l.22.06.18.08.12.08v.3a1.1 1.1 0 0 1 0 .12.35.35 0 0 1 0 .08.17.17 0 0 1-.09 0l-.14-.09-.21-.09a.86.86 0 0 0-.29 0 .68.68 0 0 0-.58.29 1.06 1.06 0 0 0-.16.34 1.78 1.78 0 0 0-.05.45 1.72 1.72 0 0 0 .06.48.92.92 0 0 0 .16.33.64.64 0 0 0 .25.19.83.83 0 0 0 .33.06 1 1 0 0 0 .29 0l.21-.09.15-.09h.09a.39.39 0 0 1 0 .08 1.36 1.36 0 0 1 0 .14m2.54.3a.81.81 0 0 1 0 .12.28.28 0 0 1 0 .08h-1.7a.2.2 0 0 1-.13 0 .19.19 0 0 1-.06-.15v-2.73a.19.19 0 0 1 .06-.15.2.2 0 0 1 .13 0h1.6a.35.35 0 0 1 0 .08.82.82 0 0 1 .1.15.8.8 0 0 1 0 .12.26.26 0 0 1 0 .08h-1.25v.8h1a.31.31 0 0 1 0 .08v.23a.32.32 0 0 1 0 .07h-1v.88h1.16a.3.3 0 0 1 0 .08.8.8 0 0 1 0 .12m3.18.3h-.56v-2.52h-.67q-.07.55-.14 1a7.14 7.14 0 0 1-.15.71 2.54 2.54 0 0 1-.18.48 1 1 0 0 1-.22.3.67.67 0 0 1-.28.15 1.37 1.37 0 0 1-.35 0h-.06a.22.22 0 0 1 0-.07.83.83 0 0 1 0-.12v-.17a.46.46 0 0 1 0-.1.35.35 0 0 0 .14 0 .34.34 0 0 0 .13-.12 1 1 0 0 0 .12-.25 3.2 3.2 0 0 0 .12-.43q.06-.27.11-.65c0-.25.08-.56.12-.9a.33.33 0 0 1 .06-.17.16.16 0 0 1 .13 0h1.53a.18.18 0 0 1 .14 0 .22.22 0 0 1 0 .15zm2.73-.16a.81.81 0 0 1 0 .12.28.28 0 0 1 0 .08h-1.66a.2.2 0 0 1-.13 0 .2.2 0 0 1-.05-.15v-2.73a.19.19 0 0 1 .05-.15.2.2 0 0 1 .13 0h1.6a.35.35 0 0 1 0 .08.82.82 0 0 1 0 .12.8.8 0 0 1 0 .12.26.26 0 0 1 0 .08H40.6V98h1a.27.27 0 0 1 0 .08.91.91 0 0 1 0 .11.92.92 0 0 1 0 .12.28.28 0 0 1 0 .07h-1v.88h1.16a.3.3 0 0 1 0 .08.8.8 0 0 1 0 .12m3.24.3h-.61V98.5h-1.18v1.26h-.56v-3h.45V98h1.17v-1.19h.61zm3.43 0h-.58v-1.98.08l-.06.1-.06.1-.07.1-1.09 1.62h-.66v-3h.61v1.99l.1-.17.13-.2 1.09-1.62h.49zm2.4-2.55h-.33a1.17 1.17 0 0 0-.31 0 .43.43 0 0 0-.17.09.34.34 0 0 0-.09.14.6.6 0 0 0 0 .18.51.51 0 0 0 0 .18.37.37 0 0 0 .07.2.44.44 0 0 0 .17.1 1 1 0 0 0 .29 0h.34zm.63 2.55h-.61v-1.17h-.25a.65.65 0 0 0-.22 0 .35.35 0 0 0-.14.09.59.59 0 0 0-.11.15 1.88 1.88 0 0 0-.09.21l-.24.68h-.6a.23.23 0 0 1 0-.06v-.11l.2-.55a1.76 1.76 0 0 1 .09-.21 1 1 0 0 1 .11-.16l.13-.12.15-.08a1.11 1.11 0 0 1-.26-.11.72.72 0 0 1-.19-.16.66.66 0 0 1-.12-.22.92.92 0 0 1 0-.28 1 1 0 0 1 .07-.39.77.77 0 0 1 .22-.29 1 1 0 0 1 .36-.19 2.16 2.16 0 0 1 .6-.07h.77a.19.19 0 0 1 .13 0 .19.19 0 0 1 .06.15z" fill="#0671af"/><path d="M18.22 32.12a3.73 3.73 0 1 1-3.73 3.73 3.73 3.73 0 0 1 3.73-3.73M30.68 45c-8.6-1.53-19.09-4.44-25.07-12.37a38.85 38.85 0 0 0 5 10.67 7.55 7.55 0 0 1-.16 2.95C9.35 51.7 8 57.37 6.72 62.94c-.72 3.18 2.85 6.32 2.23 9.39h10.74c-3.87-5.92-.91-17.53.41-26 3.05.12 8-.21 10.59-1.42" fill-rule="evenodd" fill="#fbcb00"/><path class="cls-5" d="M30.74 30.45a4.4 4.4 0 1 1-4.4 4.4 4.4 4.4 0 0 1 4.4-4.4M16.36 40.77c13.8 3.84 24.7-2.25 29-15.65a23.28 23.28 0 0 1-5.16 15.81l-.49 6.67A172.08 172.08 0 0 1 40 72.33h-6.74a71.24 71.24 0 0 0 .95-10.1c-.89 3.36-1.53 6.89-2.64 10.1h-7.18c3.05-4.88 5.2-13.14 4.45-26.57-5.14-.76-9.93-1.84-12.48-5"/><path d="M24 48.78A3.34 3.34 0 0 1 27.27 52a3.08 3.08 0 0 1-3.1 3.2 3.34 3.34 0 0 1-3.31-3.2 3.08 3.08 0 0 1 3.1-3.2m-9.14 5.81a29.79 29.79 0 0 0 17.93.3 9.57 9.57 0 0 1-6.35 4 49.61 49.61 0 0 0 .77 13.49H17.5a69.58 69.58 0 0 0 2.63-13.79c-2.28-1.12-4.31-2.33-5.31-4" fill="#e20e17" fill-rule="evenodd"/><path class="cls-5" d="M19.15 12.44a36.08 36.08 0 0 1 4.8.41q1.83-1.12 3.73-2.08a41.87 41.87 0 0 0-4.5-1q-2.08 1.26-4 2.68m13.5-3.88A46.52 46.52 0 0 0 28 7.13q-1.43.7-2.81 1.47a37 37 0 0 1 4.41 1.24q1.51-.69 3-1.28m-12.67-.74q1.42-.89 2.9-1.72 1.61.24 3.16.57-1.4.76-2.73 1.56-1.65-.23-3.33-.41m-7 4.91q2.35-1.83 4.87-3.53 1.77.08 3.49.28-2.13 1.42-4.05 3c-1.44 0-2.88.14-4.32.29M5.2 19.38c1.86-1.76 3.8-3.46 5.8-5.1q2.27-.28 4.5-.36a46.35 46.35 0 0 0-8.84 10.23 73.14 73.14 0 0 1 10.56-10.26 43.67 43.67 0 0 1 4.7.26A52 52 0 0 0 7.51 29a55.41 55.41 0 0 1 16.68-14.54 39.45 39.45 0 0 1 20.55 10.35c-6.26-6.76-12.38-10.1-18.41-11.51q1.86-1 3.77-1.78a44.52 44.52 0 0 1 15 9 36.78 36.78 0 0 0-13.19-9.81q1.59-.63 3.22-1.19a37.06 37.06 0 0 1 7.93 4.72 35.27 35.27 0 0 0-7-5q2.74-.9 5.56-1.61a17.49 17.49 0 0 0-1.06-1.55 63.69 63.69 0 0 0-6.73 2 41.36 41.36 0 0 0-4.27-1.73A62 62 0 0 1 38 3.31q-.71-.6-1.48-1.14a66.37 66.37 0 0 0-8.75 3.6q-1.42-.42-2.9-.75A73.09 73.09 0 0 1 34.35.86Q33.5.4 32.6 0a55.87 55.87 0 0 0-9.84 4.59 60.53 60.53 0 0 0-13.57-.83l-.7.7q-.43.49-.84 1a80.25 80.25 0 0 1 13.09.38q-1.4.9-2.75 1.88a58.71 58.71 0 0 0-12.52.93q-.49.84-.93 1.73A55.09 55.09 0 0 1 16 9.16q-2.27 1.76-4.41 3.72c-2.89.35-5.78.87-8.66 1.38q-.27.83-.5 1.7A65 65 0 0 1 10 14.41q-2.47 2.37-4.79 5"/><path d="M40.79 40.88a3.45 3.45 0 1 1-3.45 3.45 3.45 3.45 0 0 1 3.45-3.45M33 52.39A31.53 31.53 0 0 0 51.07 41.7a12.85 12.85 0 0 1-4.62 8.16l4.49 22.47H44c-.12-2.8-.39-5.64-.36-8.52A47.56 47.56 0 0 1 41 72.33h-6.84c3.33-4.74 5.32-12 5.14-19.41a10 10 0 0 1-6.3-.53" fill="#ec8c06" fill-rule="evenodd"/><path d="M8.15 48.14a2.74 2.74 0 1 1-2.74 2.74 2.74 2.74 0 0 1 2.74-2.74m6 9.15A23.87 23.87 0 0 1 .4 49.2a9.73 9.73 0 0 0 3.5 6.18L.5 72.33h4.39A12.44 12.44 0 0 1 6.1 67.1a12.4 12.4 0 0 0 1.2 5.23h5.86c-2.49-3.59-4-9-3.85-14.64a7.54 7.54 0 0 0 4.8-.4" fill="#35a037" fill-rule="evenodd"/></g></g></svg>